<svg xmlns="http://www.w3.org/2000/svg" xmlns:xlink="http://www.w3.org/1999/xlink" width="500" zoomAndPan="magnify" viewBox="0 0 375 374.999991" height="500" preserveAspectRatio="xMidYMid meet" version="1.0"><defs><g/><clipPath id="0d7411c16a"><path d="M 41.375 130.144531 L 333 130.144531 L 333 244.894531 L 41.375 244.894531 Z M 41.375 130.144531 " clip-rule="nonzero"/></clipPath></defs><g clip-path="url(#0d7411c16a)"><path fill="#000000" d="M 236.941406 130.417969 C 211.363281 130.289062 191.8125 131.039062 165.722656 132.929688 C 156.988281 133.5625 145.371094 134.117188 139.914062 134.160156 C 126.253906 134.269531 112.703125 135.359375 101.398438 137.253906 C 96.15625 138.132812 89.292969 138.851562 86.148438 138.851562 C 78.386719 138.855469 73.214844 140.054688 65.503906 143.632812 C 54.082031 148.933594 48.886719 155.367188 43.820312 170.488281 C 41.679688 176.875 41.367188 178.910156 41.375 186.332031 C 41.390625 201.820312 44.992188 220.410156 49.628906 228.925781 C 54.878906 238.566406 66.027344 242.753906 89.484375 243.886719 C 106.042969 244.691406 222.503906 242.949219 261.023438 241.320312 C 314.535156 239.0625 317.105469 238.339844 321.96875 224.199219 C 324.863281 215.785156 326.027344 209.785156 328.425781 190.871094 C 333.558594 150.414062 333.589844 146.738281 328.859375 139.277344 C 324.300781 132.089844 324.714844 132.144531 264.992188 130.828125 C 254.664062 130.601562 245.464844 130.460938 236.941406 130.417969 Z M 236.941406 130.417969 " fill-opacity="1" fill-rule="nonzero"/></g><g fill="#ffffff" fill-opacity="1"><g transform="translate(53.745367, 201.78542)"><g><path d="M 9.5 0 L 3.765625 0 L 3.765625 -28.984375 L 9.5 -28.984375 Z M 9.5 0 "/></g></g></g><g fill="#ffffff" fill-opacity="1"><g transform="translate(67.030319, 201.78542)"><g><path d="M 18.359375 0 L 1.15625 0 L 1.15625 -4.546875 L 11.734375 -17.109375 L 11.625 -17.53125 L 1.640625 -17.53125 L 1.640625 -21.890625 L 18.203125 -21.890625 L 18.203125 -17.34375 L 7.609375 -4.78125 L 7.75 -4.359375 L 18.359375 -4.359375 Z M 18.359375 0 "/></g></g></g><g fill="#ffffff" fill-opacity="1"><g transform="translate(86.541354, 201.78542)"><g><path d="M 18.359375 0 L 1.15625 0 L 1.15625 -4.546875 L 11.734375 -17.109375 L 11.625 -17.53125 L 1.640625 -17.53125 L 1.640625 -21.890625 L 18.203125 -21.890625 L 18.203125 -17.34375 L 7.609375 -4.78125 L 7.75 -4.359375 L 18.359375 -4.359375 Z M 18.359375 0 "/></g></g></g><g fill="#ffffff" fill-opacity="1"><g transform="translate(106.052389, 201.78542)"><g><path d="M 8.53125 0.421875 C 7.125 0.421875 5.90625 0.164062 4.875 -0.34375 C 3.84375 -0.863281 3.050781 -1.625 2.5 -2.625 C 1.945312 -3.625 1.671875 -4.820312 1.671875 -6.21875 C 1.671875 -7.519531 1.945312 -8.609375 2.5 -9.484375 C 3.050781 -10.367188 3.910156 -11.085938 5.078125 -11.640625 C 6.242188 -12.203125 7.765625 -12.640625 9.640625 -12.953125 C 10.941406 -13.160156 11.929688 -13.390625 12.609375 -13.640625 C 13.296875 -13.890625 13.757812 -14.171875 14 -14.484375 C 14.238281 -14.804688 14.359375 -15.210938 14.359375 -15.703125 C 14.359375 -16.398438 14.113281 -16.929688 13.625 -17.296875 C 13.132812 -17.671875 12.320312 -17.859375 11.1875 -17.859375 C 9.96875 -17.859375 8.804688 -17.585938 7.703125 -17.046875 C 6.609375 -16.503906 5.660156 -15.789062 4.859375 -14.90625 L 4.46875 -14.90625 L 2.15625 -18.375 C 3.269531 -19.601562 4.625 -20.5625 6.21875 -21.25 C 7.820312 -21.9375 9.570312 -22.28125 11.46875 -22.28125 C 14.351562 -22.28125 16.441406 -21.664062 17.734375 -20.4375 C 19.035156 -19.207031 19.6875 -17.460938 19.6875 -15.203125 L 19.6875 -5.703125 C 19.6875 -4.734375 20.117188 -4.25 20.984375 -4.25 C 21.304688 -4.25 21.628906 -4.304688 21.953125 -4.421875 L 22.234375 -4.34375 L 22.625 -0.515625 C 22.320312 -0.316406 21.898438 -0.15625 21.359375 -0.03125 C 20.816406 0.09375 20.222656 0.15625 19.578125 0.15625 C 18.265625 0.15625 17.238281 -0.09375 16.5 -0.59375 C 15.769531 -1.09375 15.25 -1.878906 14.9375 -2.953125 L 14.515625 -3 C 13.441406 -0.71875 11.445312 0.421875 8.53125 0.421875 Z M 10.265625 -3.6875 C 11.535156 -3.6875 12.550781 -4.113281 13.3125 -4.96875 C 14.070312 -5.820312 14.453125 -7.007812 14.453125 -8.53125 L 14.453125 -10.75 L 14.078125 -10.828125 C 13.742188 -10.566406 13.3125 -10.34375 12.78125 -10.15625 C 12.25 -9.976562 11.476562 -9.804688 10.46875 -9.640625 C 9.28125 -9.441406 8.425781 -9.097656 7.90625 -8.609375 C 7.382812 -8.128906 7.125 -7.445312 7.125 -6.5625 C 7.125 -5.625 7.398438 -4.910156 7.953125 -4.421875 C 8.503906 -3.929688 9.273438 -3.6875 10.265625 -3.6875 Z M 10.265625 -3.6875 "/></g></g></g><g fill="#ffffff" fill-opacity="1"><g transform="translate(129.112702, 201.78542)"><g><path d="M 15.09375 -5.21875 L 16.515625 -1.15625 C 15.921875 -0.664062 15.171875 -0.28125 14.265625 0 C 13.367188 0.28125 12.351562 0.421875 11.21875 0.421875 C 8.851562 0.421875 7.054688 -0.222656 5.828125 -1.515625 C 4.597656 -2.804688 3.984375 -4.679688 3.984375 -7.140625 L 3.984375 -17.53125 L 0.65625 -17.53125 L 0.65625 -21.890625 L 3.984375 -21.890625 L 3.984375 -26.15625 L 9.484375 -27.046875 L 9.484375 -21.890625 L 15.6875 -21.890625 L 15.6875 -17.53125 L 9.484375 -17.53125 L 9.484375 -7.53125 C 9.484375 -6.445312 9.707031 -5.65625 10.15625 -5.15625 C 10.601562 -4.664062 11.253906 -4.421875 12.109375 -4.421875 C 13.085938 -4.421875 13.941406 -4.6875 14.671875 -5.21875 Z M 15.09375 -5.21875 "/></g></g></g><g fill="#ffffff" fill-opacity="1"><g transform="translate(146.105559, 201.78542)"><g/></g></g><g fill="#ffffff" fill-opacity="1"><g transform="translate(155.682636, 201.78542)"><g><path d="M 3.765625 0 L 3.765625 -28.984375 L 9.5 -28.984375 L 9.5 -17.15625 L 10.125 -17.15625 L 19.8125 -28.984375 L 25.671875 -28.984375 L 25.671875 -28.5 L 15.015625 -15.3125 L 26.78125 -0.5 L 26.78125 0 L 20.3125 0 L 10.125 -12.515625 L 9.5 -12.515625 L 9.5 0 Z M 3.765625 0 "/></g></g></g><g fill="#ffffff" fill-opacity="1"><g transform="translate(182.470667, 201.78542)"><g><path d="M 8.53125 0.421875 C 7.125 0.421875 5.90625 0.164062 4.875 -0.34375 C 3.84375 -0.863281 3.050781 -1.625 2.5 -2.625 C 1.945312 -3.625 1.671875 -4.820312 1.671875 -6.21875 C 1.671875 -7.519531 1.945312 -8.609375 2.5 -9.484375 C 3.050781 -10.367188 3.910156 -11.085938 5.078125 -11.640625 C 6.242188 -12.203125 7.765625 -12.640625 9.640625 -12.953125 C 10.941406 -13.160156 11.929688 -13.390625 12.609375 -13.640625 C 13.296875 -13.890625 13.757812 -14.171875 14 -14.484375 C 14.238281 -14.804688 14.359375 -15.210938 14.359375 -15.703125 C 14.359375 -16.398438 14.113281 -16.929688 13.625 -17.296875 C 13.132812 -17.671875 12.320312 -17.859375 11.1875 -17.859375 C 9.96875 -17.859375 8.804688 -17.585938 7.703125 -17.046875 C 6.609375 -16.503906 5.660156 -15.789062 4.859375 -14.90625 L 4.46875 -14.90625 L 2.15625 -18.375 C 3.269531 -19.601562 4.625 -20.5625 6.21875 -21.25 C 7.820312 -21.9375 9.570312 -22.28125 11.46875 -22.28125 C 14.351562 -22.28125 16.441406 -21.664062 17.734375 -20.4375 C 19.035156 -19.207031 19.6875 -17.460938 19.6875 -15.203125 L 19.6875 -5.703125 C 19.6875 -4.734375 20.117188 -4.25 20.984375 -4.25 C 21.304688 -4.25 21.628906 -4.304688 21.953125 -4.421875 L 22.234375 -4.34375 L 22.625 -0.515625 C 22.320312 -0.316406 21.898438 -0.15625 21.359375 -0.03125 C 20.816406 0.09375 20.222656 0.15625 19.578125 0.15625 C 18.265625 0.15625 17.238281 -0.09375 16.5 -0.59375 C 15.769531 -1.09375 15.25 -1.878906 14.9375 -2.953125 L 14.515625 -3 C 13.441406 -0.71875 11.445312 0.421875 8.53125 0.421875 Z M 10.265625 -3.6875 C 11.535156 -3.6875 12.550781 -4.113281 13.3125 -4.96875 C 14.070312 -5.820312 14.453125 -7.007812 14.453125 -8.53125 L 14.453125 -10.75 L 14.078125 -10.828125 C 13.742188 -10.566406 13.3125 -10.34375 12.78125 -10.15625 C 12.25 -9.976562 11.476562 -9.804688 10.46875 -9.640625 C 9.28125 -9.441406 8.425781 -9.097656 7.90625 -8.609375 C 7.382812 -8.128906 7.125 -7.445312 7.125 -6.5625 C 7.125 -5.625 7.398438 -4.910156 7.953125 -4.421875 C 8.503906 -3.929688 9.273438 -3.6875 10.265625 -3.6875 Z M 10.265625 -3.6875 "/></g></g></g><g fill="#ffffff" fill-opacity="1"><g transform="translate(205.530979, 201.78542)"><g><path d="M 3.15625 0 L 3.15625 -21.875 L 8.484375 -21.875 L 8.484375 -18.625 L 8.90625 -18.546875 C 9.4375 -19.753906 10.128906 -20.640625 10.984375 -21.203125 C 11.847656 -21.773438 12.894531 -22.0625 14.125 -22.0625 C 15.363281 -22.0625 16.304688 -21.851562 16.953125 -21.4375 L 16.015625 -16.703125 L 15.609375 -16.609375 C 15.242188 -16.753906 14.894531 -16.859375 14.5625 -16.921875 C 14.238281 -16.992188 13.835938 -17.03125 13.359375 -17.03125 C 11.828125 -17.03125 10.65625 -16.488281 9.84375 -15.40625 C 9.039062 -14.332031 8.640625 -12.609375 8.640625 -10.234375 L 8.640625 0 Z M 3.15625 0 "/></g></g></g><g fill="#ffffff" fill-opacity="1"><g transform="translate(222.682463, 201.78542)"><g><path d="M 5.890625 -24.484375 C 4.898438 -24.484375 4.09375 -24.785156 3.46875 -25.390625 C 2.84375 -25.992188 2.53125 -26.769531 2.53125 -27.71875 C 2.53125 -28.65625 2.84375 -29.425781 3.46875 -30.03125 C 4.09375 -30.632812 4.898438 -30.9375 5.890625 -30.9375 C 6.546875 -30.9375 7.128906 -30.796875 7.640625 -30.515625 C 8.160156 -30.234375 8.5625 -29.851562 8.84375 -29.375 C 9.132812 -28.894531 9.28125 -28.34375 9.28125 -27.71875 C 9.28125 -27.09375 9.132812 -26.535156 8.84375 -26.046875 C 8.5625 -25.566406 8.160156 -25.1875 7.640625 -24.90625 C 7.128906 -24.625 6.546875 -24.484375 5.890625 -24.484375 Z M 3.15625 0 L 3.15625 -21.875 L 8.640625 -21.875 L 8.640625 0 Z M 3.15625 0 "/></g></g></g><g fill="#ffffff" fill-opacity="1"><g transform="translate(234.460465, 201.78542)"><g><path d="M 3.15625 0 L 3.15625 -21.875 L 8.421875 -21.875 L 8.421875 -18.9375 L 8.84375 -18.859375 C 9.5625 -20.035156 10.398438 -20.898438 11.359375 -21.453125 C 12.316406 -22.003906 13.539062 -22.28125 15.03125 -22.28125 C 16.6875 -22.28125 18.015625 -21.953125 19.015625 -21.296875 C 20.015625 -20.648438 20.75 -19.695312 21.21875 -18.4375 L 21.640625 -18.4375 C 22.304688 -19.75 23.171875 -20.71875 24.234375 -21.34375 C 25.304688 -21.96875 26.632812 -22.28125 28.21875 -22.28125 C 32.75 -22.28125 35.015625 -19.757812 35.015625 -14.71875 L 35.015625 0 L 29.53125 0 L 29.53125 -14.015625 C 29.53125 -15.296875 29.273438 -16.21875 28.765625 -16.78125 C 28.265625 -17.351562 27.460938 -17.640625 26.359375 -17.640625 C 23.335938 -17.640625 21.828125 -15.625 21.828125 -11.59375 L 21.828125 0 L 16.34375 0 L 16.34375 -14.015625 C 16.34375 -15.296875 16.085938 -16.21875 15.578125 -16.78125 C 15.066406 -17.351562 14.253906 -17.640625 13.140625 -17.640625 C 11.734375 -17.640625 10.628906 -17.164062 9.828125 -16.21875 C 9.035156 -15.28125 8.640625 -13.78125 8.640625 -11.71875 L 8.640625 0 Z M 3.15625 0 "/></g></g></g><g fill="#ffffff" fill-opacity="1"><g transform="translate(272.292838, 201.78542)"><g><path d="M 12.703125 0.421875 C 10.566406 0.421875 8.6875 -0.015625 7.0625 -0.890625 C 5.445312 -1.773438 4.191406 -3.066406 3.296875 -4.765625 C 2.410156 -6.460938 1.96875 -8.515625 1.96875 -10.921875 C 1.96875 -13.328125 2.410156 -15.382812 3.296875 -17.09375 C 4.191406 -18.800781 5.445312 -20.09375 7.0625 -20.96875 C 8.6875 -21.84375 10.566406 -22.28125 12.703125 -22.28125 C 14.847656 -22.28125 16.726562 -21.84375 18.34375 -20.96875 C 19.96875 -20.09375 21.226562 -18.800781 22.125 -17.09375 C 23.03125 -15.382812 23.484375 -13.328125 23.484375 -10.921875 C 23.484375 -8.515625 23.03125 -6.460938 22.125 -4.765625 C 21.226562 -3.066406 19.96875 -1.773438 18.34375 -0.890625 C 16.726562 -0.015625 14.847656 0.421875 12.703125 0.421875 Z M 12.703125 -4.25 C 16.109375 -4.25 17.8125 -6.472656 17.8125 -10.921875 C 17.8125 -13.234375 17.375 -14.925781 16.5 -16 C 15.625 -17.082031 14.359375 -17.625 12.703125 -17.625 C 9.304688 -17.625 7.609375 -15.390625 7.609375 -10.921875 C 7.609375 -6.472656 9.304688 -4.25 12.703125 -4.25 Z M 12.703125 -4.25 "/></g></g></g><g fill="#ffffff" fill-opacity="1"><g transform="translate(297.712703, 201.78542)"><g><path d="M 15.046875 0 L 8.5 0 L 0.421875 -21.875 L 6.171875 -21.875 L 11.59375 -6.28125 L 12.0625 -6.28125 L 17.515625 -21.875 L 23.125 -21.875 Z M 15.046875 0 "/></g></g></g></svg>